<svg xmlns="http://www.w3.org/2000/svg" xmlns:xlink="http://www.w3.org/1999/xlink" width="61" height="53" viewBox="0 0 61 53">
    <defs>
        <path id="prefix__a" d="M0.021 0.002L37.915 0.002 37.915 53 0.021 53z"/>
    </defs>
    <g fill="none" fill-rule="evenodd">
        <g transform="translate(-10 -.5) translate(22 .5)">
            <mask id="prefix__b" fill="#fff">
                <use xlink:href="#prefix__a"/>
            </mask>
            <path fill="#811063" d="M30.85 28.845c-2.202 2.471-3.557 5.45-3.9 8.524H10.985c-.343-3.075-1.695-6.084-3.824-8.438-3.372-3.728-4.69-8.725-3.615-13.71C4.802 9.401 9.623 4.675 15.544 3.458 25.65 1.381 34.757 8.846 34.757 18.633a15.34 15.34 0 01-3.907 10.212zm-3.988 13.182c0 .857-.708 1.553-1.579 1.553H12.652c-.87 0-1.58-.696-1.58-1.553v-1.552h15.79v1.552zm-7.894 7.868c-2.03 0-3.81-1.374-4.467-3.22h8.933c-.657 1.846-2.437 3.22-4.466 3.22zM14.898.418C7.764 1.884 1.98 7.518.458 14.577c-1.286 5.96.298 11.945 4.345 16.418 1.978 2.187 3.112 5.073 3.112 7.927v3.105c0 2.067 1.375 3.822 3.273 4.43.624 3.626 3.824 6.543 7.78 6.543 3.954 0 7.155-2.917 7.78-6.543 1.897-.608 3.272-2.363 3.272-4.43v-3.105c0-2.86 1.138-5.711 3.205-8.03a18.413 18.413 0 004.69-12.26c0-11.755-10.942-20.695-23.017-18.214z" mask="url(#prefix__b)"/>
        </g>
        <path fill="#811063" d="M15.25 17.5h-3.5c-.966 0-1.75.895-1.75 2s.784 2 1.75 2h3.5c.966 0 1.75-.895 1.75-2s-.784-2-1.75-2M16.4 10l-2.9-2.071c-.8-.572-2.099-.572-2.9 0-.8.572-.8 1.5 0 2.07l2.9 2.072c.8.572 2.099.572 2.9 0 .8-.572.8-1.5 0-2.071M16.4 26.929c-.801-.572-2.1-.572-2.9 0l-2.9 2.07c-.8.573-.8 1.5 0 2.072.801.572 2.1.572 2.9 0L16.4 29c.8-.572.8-1.5 0-2.071M69.25 17.5h-3.5c-.966 0-1.75.895-1.75 2s.784 2 1.75 2h3.5c.966 0 1.75-.895 1.75-2s-.784-2-1.75-2M70.4 7.929c-.8-.572-2.1-.572-2.9 0L64.6 10c-.8.572-.8 1.5 0 2.071.801.572 2.1.572 2.9 0l2.9-2.07c.8-.573.8-1.5 0-2.072M70.4 29l-2.9-2.071c-.8-.572-2.099-.572-2.9 0-.8.572-.8 1.5 0 2.071l2.9 2.071c.8.572 2.099.572 2.9 0 .8-.572.8-1.5 0-2.07" transform="translate(-10 -.5)"/>
    </g>
</svg>
