<?xml version="1.0" encoding="UTF-8"?>
<svg width="102px" height="87px" viewBox="0 0 102 87" version="1.1" xmlns="http://www.w3.org/2000/svg" xmlns:xlink="http://www.w3.org/1999/xlink">
    <!-- Generator: Sketch 54.1 (76490) - https://sketchapp.com -->
    <title>Group 16</title>
    <desc>Created with Sketch.</desc>
    <defs>
        <polygon id="path-1" points="0.0350488966 0.00390820312 62.8590266 0.00390820312 62.8590266 87 0.0350488966 87"></polygon>
    </defs>
    <g id="Page-1" stroke="none" stroke-width="1" fill="none" fill-rule="evenodd">
        <g id="YTQP_Web_Turismo-Comunitario_v1_2_pop" transform="translate(-1018.000000, -867.000000)">
            <g id="Group-16" transform="translate(1018.000000, 867.000000)">
                <g id="Group-3" transform="translate(20.000000, 0.000000)">
                    <mask id="mask-2" fill="white">
                        <use xlink:href="#path-1"></use>
                    </mask>
                    <g id="Clip-2"></g>
                    <path d="M51.145913,47.3501238 C47.4950543,51.4056492 45.2488687,56.2958309 44.6787274,61.3420008 L18.21419,61.3420008 C17.6449213,56.293282 15.4043202,51.3546727 11.8744006,47.4906492 C6.28328144,41.370743 4.09852521,33.1677645 5.88050028,24.9853465 C7.96054737,15.4333582 15.9533452,7.67387578 25.7696526,5.67678398 C42.5271291,2.26696172 57.6235695,14.520368 57.6235695,30.5861414 C57.6235695,36.7563445 55.3231097,42.7097273 51.145913,47.3501238 L51.145913,47.3501238 Z M44.5349269,68.9884852 C44.5349269,70.393909 43.3606139,71.5373133 41.9171983,71.5373133 L20.9753701,71.5373133 C19.5319546,71.5373133 18.3576416,70.393909 18.3576416,68.9884852 L18.3576416,66.439657 L44.5349269,66.439657 L44.5349269,68.9884852 Z M31.4462842,81.9025477 C28.0812814,81.9025477 25.1309269,79.6480242 24.0414283,76.6179773 L38.8509657,76.6179773 C37.7616416,79.6480242 34.8111125,81.9025477 31.4462842,81.9025477 L31.4462842,81.9025477 Z M24.6986526,0.686688281 C12.8717551,3.09295195 3.28196842,12.3407801 0.758652632,23.9279227 C-1.37200388,33.7123641 1.25357784,43.5355477 7.96229252,50.8787215 C11.2416083,54.4679812 13.1221845,59.205743 13.1221845,63.8908289 L13.1221845,68.9884852 C13.1221845,72.3801258 15.4025751,75.261491 18.5483867,76.2594422 C19.582913,82.2109559 24.8881762,87.000034 31.4462842,87.000034 C38.0026471,87.000034 43.3093064,82.2124852 44.3440072,76.2594422 C47.4899934,75.261491 49.7703839,72.3801258 49.7703839,68.9883152 L49.7703839,63.890659 C49.7703839,59.1965672 51.6572427,54.5155594 55.0829767,50.7098191 C60.0974975,45.13995 62.8590266,37.9930359 62.8590266,30.5861414 C62.8590266,11.2887937 44.7183424,-3.38565938 24.6986526,0.686688281 L24.6986526,0.686688281 Z" id="Fill-1" fill="#FFFFFF" mask="url(#mask-2)"></path>
                </g>
                <path d="M9,28 L3,28 C1.3432,28 0,29.5670667 0,31.5 C0,33.4329333 1.3432,35 3,35 L9,35 C10.6568,35 12,33.4329333 12,31.5 C12,29.5670667 10.6568,28 9,28" id="Fill-4" fill="#FFFFFF"></path>
                <path d="M99,28 L93,28 C91.3432,28 90,29.5670667 90,31.5 C90,33.4329333 91.3432,35 93,35 L99,35 C100.6568,35 102,33.4329333 102,31.5 C102,29.5670667 100.6568,28 99,28" id="Fill-10" fill="#FFFFFF"></path>
                <path d="M98.6835938,10.6298828 L92.6835938,10.6298828 C91.0267937,10.6298828 89.6835938,12.1969495 89.6835938,14.1298828 C89.6835938,16.0628161 91.0267937,17.6298828 92.6835938,17.6298828 L98.6835938,17.6298828 C100.340394,17.6298828 101.683594,16.0628161 101.683594,14.1298828 C101.683594,12.1969495 100.340394,10.6298828 98.6835938,10.6298828" id="Fill-10-Copy" fill="#FFFFFF" transform="translate(95.683594, 14.129883) rotate(-30.000000) translate(-95.683594, -14.129883) "></path>
                <path d="M10.9461524,45.5310889 L4.94615242,45.5310889 C3.28935242,45.5310889 1.94615242,47.0981556 1.94615242,49.0310889 C1.94615242,50.9640222 3.28935242,52.5310889 4.94615242,52.5310889 L10.9461524,52.5310889 C12.6029524,52.5310889 13.9461524,50.9640222 13.9461524,49.0310889 C13.9461524,47.0981556 12.6029524,45.5310889 10.9461524,45.5310889" id="Fill-10-Copy-3" fill="#FFFFFF" transform="translate(7.946152, 49.031089) rotate(-210.000000) translate(-7.946152, -49.031089) "></path>
                <path d="M10.9461524,10.6298828 L4.94615242,10.6298828 C3.28935242,10.6298828 1.94615242,12.1969495 1.94615242,14.1298828 C1.94615242,16.0628161 3.28935242,17.6298828 4.94615242,17.6298828 L10.9461524,17.6298828 C12.6029524,17.6298828 13.9461524,16.0628161 13.9461524,14.1298828 C13.9461524,12.1969495 12.6029524,10.6298828 10.9461524,10.6298828" id="Fill-10-Copy-2" fill="#FFFFFF" transform="translate(7.946152, 14.129883) scale(-1, 1) rotate(-30.000000) translate(-7.946152, -14.129883) "></path>
                <path d="M98.6835938,45.5310889 L92.6835938,45.5310889 C91.0267937,45.5310889 89.6835938,47.0981556 89.6835938,49.0310889 C89.6835938,50.9640222 91.0267937,52.5310889 92.6835938,52.5310889 L98.6835938,52.5310889 C100.340394,52.5310889 101.683594,50.9640222 101.683594,49.0310889 C101.683594,47.0981556 100.340394,45.5310889 98.6835938,45.5310889" id="Fill-10-Copy-4" fill="#FFFFFF" transform="translate(95.683594, 49.031089) scale(-1, 1) rotate(-210.000000) translate(-95.683594, -49.031089) "></path>
            </g>
        </g>
    </g>
</svg>