<svg xmlns="http://www.w3.org/2000/svg" xmlns:xlink="http://www.w3.org/1999/xlink" width="50" height="53" viewBox="0 0 50 53">
    <defs>
        <path id="prefix__a" d="M0 0L50 0 50 52.478 0 52.478z"/>
    </defs>
    <g fill="none" fill-rule="evenodd">
        <mask id="prefix__b" fill="#fff">
            <use xlink:href="#prefix__a"/>
        </mask>
        <path fill="#F2B30C" d="M47.858 19.374c0 .503-.357.91-.796.91h-1.774V8.514h1.774c.439 0 .796.407.796.91v9.95zM38.362 44.07H11.638c-2.652 0-4.804-2.26-4.804-5.044v-8.182h36.322v8.182c0 2.774-2.152 5.044-4.794 5.044zm-2.54 6.18H35.2c-1 0-1.816-.964-1.816-2.142v-1.81h4.254v1.81c0 1.189-.816 2.142-1.816 2.142zm-19.217-2.142c0 1.178-.816 2.142-1.815 2.142h-.622c-1 0-1.816-.964-1.816-2.142v-1.81h4.253v1.81zM2.927 20.284c-.438 0-.795-.407-.795-.91v-9.95c0-.503.357-.91.795-.91h1.775v11.77H2.927zm23.011 8.322h17.218V11.78H25.938v16.825zm-19.104 0h16.983V11.78H6.834v16.825zm4.804-26.368h26.724c2.652 0 4.804 2.26 4.804 5.045v2.27H6.834v-2.27c0-2.785 2.152-5.045 4.804-5.045zm35.424 4.038h-1.846C44.747 2.742 41.85 0 38.352 0H11.628C8.129 0 5.233 2.731 4.763 6.276H2.927C1.316 6.276 0 7.69 0 9.425v9.949c0 1.735 1.316 3.149 2.927 3.149h1.775v16.503c0 3.502 2.377 6.437 5.518 7.122v1.96c0 2.41 1.765 4.37 3.948 4.37h.622c2.172 0 3.947-1.96 3.947-4.37v-1.81h12.526v1.81c0 2.41 1.764 4.37 3.947 4.37h.622c2.173 0 3.948-1.96 3.948-4.37v-1.96c3.151-.685 5.518-3.62 5.518-7.122V22.523h1.775c1.611 0 2.927-1.414 2.927-3.15V9.426c-.01-1.735-1.326-3.15-2.938-3.15z" mask="url(#prefix__b)"/>
    </g>
</svg>
