<svg xmlns="http://www.w3.org/2000/svg" width="54" height="54" viewBox="0 0 54 54">
    <g fill="#F0B126" fill-rule="evenodd">
        <path d="M27 52.2C13.083 52.2 1.8 40.917 1.8 27S13.083 1.8 27 1.8 52.2 13.083 52.2 27C52.184 40.91 40.91 52.184 27 52.2M27 0C12.088 0 0 12.088 0 27s12.088 27 27 27 27-12.088 27-27C53.983 12.096 41.904.017 27 0"/>
        <path d="M27.91 47v-2.708a.91.91 0 00-1.82 0V47C15.753 46.517 7.483 38.247 7 27.91h2.708a.91.91 0 000-1.82H7C7.483 15.753 15.753 7.483 26.09 7v2.708a.91.91 0 001.82 0V7c10.337.483 18.607 8.753 19.09 19.09h-2.708a.91.91 0 000 1.82H47C46.517 38.247 38.247 46.517 27.91 47M27 5C14.85 5 5 14.85 5 27s9.85 22 22 22 22-9.85 22-22c-.014-12.144-9.856-21.986-22-22"/>
        <path d="M27.495 28.235a.888.888 0 01-.894-.883c0-.488.4-.883.894-.883.493 0 .893.395.893.883s-.4.883-.893.883m11.612-1.766H30.01a2.678 2.678 0 00-2.515-1.766 2.666 2.666 0 00-1.15.265l-.005-.008-9.826-9.712a.9.9 0 00-1.252.01.876.876 0 00-.011 1.238l9.826 9.713.007.005a2.594 2.594 0 00-.27 1.138 2.652 2.652 0 002.221 2.61 2.677 2.677 0 002.975-1.727h9.097a.888.888 0 00.893-.883c0-.488-.4-.883-.893-.883"/>
    </g>
</svg>
