<?xml version="1.0" encoding="UTF-8"?>
<svg width="91px" height="91px" viewBox="0 0 91 91" version="1.1" xmlns="http://www.w3.org/2000/svg" xmlns:xlink="http://www.w3.org/1999/xlink">
    <!-- Generator: Sketch 54.1 (76490) - https://sketchapp.com -->
    <title>Group 7</title>
    <desc>Created with Sketch.</desc>
    <g id="Page-1" stroke="none" stroke-width="1" fill="none" fill-rule="evenodd">
        <g id="YTQP_Web_Turismo-Comunitario_v1_2_pop" transform="translate(-542.000000, -846.000000)" fill="#FFFFFF">
            <g id="Group-7" transform="translate(542.000000, 846.000000)">
                <path d="M45.5,87.9666667 C22.0464563,87.9666667 3.03333333,68.9535438 3.03333333,45.5 C3.03333333,22.0464563 22.0464563,3.03333333 45.5,3.03333333 C68.9535438,3.03333333 87.9666667,22.0464563 87.9666667,45.5 C87.9399354,68.9423583 68.9423583,87.9399354 45.5,87.9666667 M45.5,0 C20.3712979,0 0,20.3712979 0,45.5 C0,70.6287021 20.3712979,91 45.5,91 C70.6287021,91 91,70.6287021 91,45.5 C90.9719417,20.3832417 70.6167583,0.0280583333 45.5,0" id="Fill-1"></path>
                <path d="M46.9789449,78 L46.9789449,73.5999539 C46.9789449,72.7832066 46.3167473,72.121009 45.5,72.121009 C44.6832527,72.121009 44.0210551,72.7832066 44.0210551,73.5999539 L44.0210551,78 C27.2241227,77.2157894 13.7842106,63.7760621 13,46.9789449 L17.4000461,46.9789449 C18.2167934,46.9789449 18.878991,46.3167473 18.878991,45.5 C18.878991,44.6832527 18.2167934,44.0210551 17.4000461,44.0210551 L13,44.0210551 C13.7842106,27.2241227 27.2241227,13.7843954 44.0210551,13 L44.0210551,17.4000461 C44.0210551,18.2167934 44.6832527,18.878991 45.5,18.878991 C46.3167473,18.878991 46.9789449,18.2167934 46.9789449,17.4000461 L46.9789449,13 C63.7758773,13.7843954 77.2157894,27.2241227 78,44.0210551 L73.5999539,44.0210551 C72.7832066,44.0210551 72.121009,44.6832527 72.121009,45.5 C72.121009,46.3167473 72.7832066,46.9789449 73.5999539,46.9789449 L78,46.9789449 C77.2157894,63.7760621 63.7758773,77.2157894 46.9789449,78 M45,10 C25.1176875,10 9,26.1176875 9,46 C9,65.8823125 25.1176875,82 45,82 C64.8823125,82 81,65.8823125 81,46 C80.9765625,26.12725 64.87275,10.0234375 45,10" id="Fill-3"></path>
                <path d="M45.9908132,47.0582049 C45.1620758,47.0582049 44.490157,46.3993128 44.490157,45.5866423 C44.490157,44.7739718 45.1620758,44.1150797 45.9908132,44.1150797 C46.8195506,44.1150797 47.4914694,44.7739718 47.4914694,45.5866423 C47.4914694,46.3993128 46.8195506,47.0582049 45.9908132,47.0582049 M65.4993438,44.1150797 L50.2164735,44.1150797 C49.5826338,42.3574821 47.8915819,41.1798641 45.9908132,41.1719544 C45.3211454,41.1741618 44.6608566,41.3249969 44.0592811,41.6130553 L44.0504647,41.6001792 L27.5432465,25.4129903 C26.954239,24.855452 26.0183923,24.8633617 25.4395141,25.431017 C24.860636,25.9986722 24.85257,26.9161915 25.4213187,27.4939638 L41.9285369,43.6811526 L41.9416676,43.6897981 C41.6471638,44.2802626 41.4918459,44.9292217 41.4888446,45.5866423 C41.4845302,47.7343879 43.0605944,49.5716339 45.2192883,49.9360296 C47.3779823,50.2995055 49.4888428,49.0838109 50.2164735,47.0582049 L65.4993438,47.0582049 C66.3280812,47.0582049 67,46.3993128 67,45.5866423 C67,44.7739718 66.3280812,44.1150797 65.4993438,44.1150797" id="Fill-5"></path>
            </g>
        </g>
    </g>
</svg>