<svg xmlns="http://www.w3.org/2000/svg" xmlns:xlink="http://www.w3.org/1999/xlink" width="56" height="53" viewBox="0 0 56 53">
    <defs>
        <path id="prefix__a" d="M0 0.04L55.924 0.04 55.924 52.348 0 52.348z"/>
    </defs>
    <g fill="none" fill-rule="evenodd">
        <mask id="prefix__b" fill="#fff">
            <use xlink:href="#prefix__a"/>
        </mask>
        <path fill="#4FBB00" d="M51.1 50.409H40.581h-.001a5.833 5.833 0 01-.175-1.13c-.173-3.096 2.13-5.801 5.111-5.98 3.148-.19 5.767 2.415 5.767 5.644 0 .5-.061.99-.184 1.466zm-12.433 0H34.215v-5.714-.001h5.568v.001a7.755 7.755 0 00-1.253 4.248c0 .496.046.985.137 1.465zm-6.669-25.054H22.07c-1.224 0-2.217 1.03-2.217 2.302V42.75a.005.005 0 01-.004.005h-2.852a.005.005 0 01-.004-.005l-1.868.004h-2.99l-1.867-.004a.005.005 0 01-.004.005H8.038a.005.005 0 01-.004-.005V27.038l.001-.004L27.031 9.32a.005.005 0 01.006 0l18.996 17.714.001.004V41.35a.005.005 0 01-.004.004c-.063-.001-.126-.004-.19-.004-.705 0-1.388.106-2.034.3-.003.002-.003-.004-.006-.004a5.231 5.231 0 00-1.867.884 7.485 7.485 0 00-.322.225h-2.667l-.001-.001-1.867-.004a.005.005 0 01-.005.005H34.22a.005.005 0 01-.004-.005V27.657c0-1.271-.993-2.302-2.217-2.302zm.35 25.053l-.001.002H21.72l-.001-.002V27.654c0-.199.155-.36.346-.36h9.936c.19 0 .346.162.346.36v22.754zm-12.495 0v.002H8.034l-.001-.002v-5.713-.001H19.854v5.714zM4.576 27.654a.336.336 0 01-.487-.028l-2.135-2.47a.37.37 0 01.026-.506L25.736 2.497c.74-.69 1.856-.69 2.596 0l23.756 22.154a.369.369 0 01.026.506l-2.135 2.47a.336.336 0 01-.487.027L27.657 7.293a.907.907 0 00-1.246 0L4.576 27.653zM54.991 50.41h-1.972c-.003 0-.005-.003-.004-.006.09-.478.136-.967.136-1.461 0-3.443-2.218-6.356-5.247-7.283a.005.005 0 01-.003-.005V28.787c0-.004.005-.006.008-.004l.336.314a2.157 2.157 0 003.123-.175l2.135-2.47c.815-.943.74-2.398-.168-3.244l-10.203-9.514-3.025-2.822-10.528-9.817a3.699 3.699 0 00-5.09 0L.733 23.208c-.907.846-.983 2.301-.168 3.244l2.135 2.47a2.166 2.166 0 001.648.762c.546 0 1.066-.206 1.475-.587l.336-.314c.003-.003.008 0 .008.003V50.404c0 .003-.002.005-.004.005H3.874c-.518 0-.938.436-.938.975 0 .533.416.964.928.964h51.127c.515 0 .933-.434.933-.969 0-.536-.418-.97-.933-.97z" mask="url(#prefix__b)"/>
        <path fill="#4FBB00" d="M30.642 39.358c-.584 0-1.057.469-1.057 1.047v1.187c0 .577.473 1.046 1.057 1.046.583 0 1.056-.469 1.056-1.046v-1.187c0-.578-.473-1.047-1.056-1.047"/>
    </g>
</svg>
