<?xml version="1.0" encoding="UTF-8"?>
<svg width="27px" height="28px" viewBox="0 0 27 28" version="1.1" xmlns="http://www.w3.org/2000/svg" xmlns:xlink="http://www.w3.org/1999/xlink">
    <!-- Generator: Sketch 54.1 (76490) - https://sketchapp.com -->
    <title>lupa</title>
    <desc>Created with Sketch.</desc>
    <g id="version-web" stroke="none" stroke-width="1" fill="none" fill-rule="evenodd">
        <g id="YTQP_Web_BlogViajero_v1" transform="translate(-1139.000000, -23.000000)" fill="#ADAFAF">
            <g id="HEADER_desk_1" transform="translate(0.000000, 0.000000)">
                <g id="lupa" transform="translate(1139.000000, 23.000000)">
                    <g id="Group-5-Copy-2">
                        <path d="M10.5576757,18.6504814 C8.42014432,18.5267721 6.45944895,17.5942175 5.0374139,16.025458 C3.61507691,14.4562052 2.90149289,12.4381858 3.02770366,10.3430208 C3.15381379,8.24775706 4.10492365,6.32602173 5.70580761,4.9321717 C7.22999891,3.60461562 9.13131282,2.95223185 11.0258834,2.95223185 C13.2381951,2.95223185 15.4417506,3.84236625 17.0230085,5.58731771 C19.9590696,8.82654665 19.6591429,13.8027363 16.3547154,16.6805053 C14.7541334,18.0743554 12.69722,18.7753744 10.5576757,18.6504814 M3.70424975,2.72405045 C1.50180137,4.64203702 0.193396273,7.28590288 0.0196803339,10.1688018 C-0.154136252,13.0517008 0.827972747,15.82776 2.7847429,17.9868513 C4.74141241,20.1456467 7.43884049,21.4281189 10.3799339,21.5984905 C10.6020608,21.6116111 10.8238858,21.6177275 11.044805,21.6177275 C13.2460456,21.6177275 15.3635483,20.9819173 17.1739783,19.7869491 L24.7673577,28 L27,26.017002 L19.4228248,17.8212151 C22.9399183,13.7841898 22.9726284,7.70408748 19.2757802,3.62582574 C15.2361297,-0.83086397 8.25105812,-1.23513868 3.70424975,2.72405045 Z" id="Fill-1"></path>
                    </g>
                </g>
            </g>
        </g>
    </g>
</svg>