<svg xmlns="http://www.w3.org/2000/svg" xmlns:xlink="http://www.w3.org/1999/xlink" width="50" height="53" viewBox="0 0 50 53">
    <defs>
        <path id="prefix__a" d="M0 0.088L49.92 0.088 49.92 52.478 0 52.478z"/>
    </defs>
    <g fill="none" fill-rule="evenodd">
        <path fill="#0071BC" d="M20.32 16.4c0-2.71 2.1-4.913 4.68-4.913 2.58 0 4.68 2.203 4.68 4.912 0 2.71-2.1 4.913-4.68 4.913-2.58 0-4.68-2.204-4.68-4.913m10.93 0c0-3.617-2.804-6.56-6.25-6.56s-6.25 2.943-6.25 6.56c0 3.617 2.804 6.56 6.25 6.56s6.25-2.943 6.25-6.56"/>
        <mask id="prefix__b" fill="#fff">
            <use xlink:href="#prefix__a"/>
        </mask>
        <path fill="#0071BC" d="M37.583 50.75c3.204-1.065 6.482-2.752 8.087-5.389l2.19 5.39H37.583zM3.16 47.764a17.22 17.22 0 004.737.692c2.825 0 5.157-.822 6.812-2.39 2.043 1.961 5.707 3.244 9.972 3.244 6.563 0 11.704-3.036 11.704-6.912 0-2.342-1.86-4.432-5.022-5.704a64.933 64.933 0 001.927-2.444h7.866l3.664 9.019c-.972 3.13-4.977 4.98-8.217 5.99-3.585 1.116-7.03 1.459-7.377 1.491H2.028l1.132-2.986zM8.284 34.25h6.82c-.939 1.665-3.02 2.668-4.749 3.24a21.718 21.718 0 01-3.615.833l1.544-4.073zm19.578 6.359c1.746.52 2.543 1.342 2.543 1.894 0 .475-.552 1.04-1.441 1.473-1.13.551-2.651.855-4.283.855-1.632 0-3.153-.304-4.283-.855-.89-.434-1.441-.998-1.441-1.473 0-.566.812-1.39 2.585-1.906 1.514 1.57 2.558 2.501 2.64 2.573l.526.468.527-.468c.081-.072 1.12-.998 2.627-2.561zm-13.248 1.789c0-1.706 1.76-3.352 4.609-4.329.353.405.698.79 1.03 1.154-1.857.74-2.934 1.922-2.934 3.28 0 2.312 3.165 4.055 7.362 4.055s7.362-1.743 7.362-4.055c0-1.34-1.065-2.522-2.895-3.264.333-.364.678-.75 1.033-1.155 2.822.978 4.567 2.62 4.567 4.314 0 2.81-4.61 5.185-10.067 5.185s-10.067-2.375-10.067-5.185zm-8.566-2.25c1.518-.147 8.455-1.043 10.583-5.233a64.89 64.89 0 001.408 1.762c-3.189 1.27-5.063 3.365-5.063 5.72 0 .831.237 1.623.673 2.355-3.186 3.07-8.729 1.722-9.877 1.399l2.276-6.003zm7.976-34.03c2.604-2.737 6.441-4.303 10.537-4.303H24.855c4.096 0 7.934 1.566 10.537 4.303 2.426 2.548 3.707 6.029 3.707 10.066 0 10.946-11.739 22.668-14.391 25.176-2.652-2.508-14.391-14.23-14.391-25.176 0-4.037 1.281-7.518 3.707-10.066zm35.83 45.156l-7.406-18.227a.819.819 0 00-.752-.524h-7.159c4.115-5.926 6.2-11.413 6.2-16.34 0-4.506-1.449-8.41-4.19-11.289C33.64 1.837 29.382.088 24.859.088h-.297c-4.525 0-8.784 1.75-11.693 4.806-2.74 2.88-4.189 6.783-4.189 11.29 0 4.926 2.085 10.413 6.2 16.34H7.73a.82.82 0 00-.76.542L.06 51.293c-.101.266-.07.568.082.805.152.237.406.38.678.38h48.283a.809.809 0 00.683-.389.905.905 0 00.069-.815z" mask="url(#prefix__b)"/>
    </g>
</svg>
