<svg xmlns="http://www.w3.org/2000/svg" xmlns:xlink="http://www.w3.org/1999/xlink" width="54" height="54" viewBox="0 0 54 54">
    <defs>
        <path id="prefix__a" d="M0 0L54 0 54 54 0 54z"/>
    </defs>
    <g fill="none" fill-rule="evenodd">
        <mask id="prefix__b" fill="#fff">
            <use xlink:href="#prefix__a"/>
        </mask>
        <path fill="#77B822" d="M50.366 44.004a.05.05 0 01-.08.01l-11.879-11.88a.051.051 0 01.01-.079 5.46 5.46 0 012.794-.792c1.432 0 2.833.58 3.846 1.593l4.508 4.508a5.476 5.476 0 011.593 3.847 5.46 5.46 0 01-.792 2.793m-1.964 2.216l-.68.68a14.445 14.445 0 01-10.279 4.258c-2.018 0-3.977-.41-5.828-1.218A53.333 53.333 0 014.06 22.384 14.455 14.455 0 012.846 16.9c-.093-4.04 1.557-7.925 4.413-10.782l.521-.52a.05.05 0 01.071 0l12.13 12.13a.05.05 0 010 .07l-2.914 2.915a.05.05 0 00-.014.035v.518c0 8.66 7.02 15.681 15.681 15.681h.518a.05.05 0 00.035-.014l2.914-2.915a.05.05 0 01.071 0l12.13 12.13a.05.05 0 010 .072M9.996 3.634a5.46 5.46 0 012.793-.792c1.433 0 2.834.58 3.847 1.593l4.508 4.508a5.475 5.475 0 011.593 3.846c0 .988-.289 1.953-.792 2.794a.05.05 0 01-.08.01L9.986 3.713a.051.051 0 01.01-.079m41.578 31.72l-1.446-1.446-2.674-2.673-.387-.388a8.34 8.34 0 00-5.856-2.426 8.337 8.337 0 00-3.883.972l-2.517 1.998a.047.047 0 00-.004.004l-2.682 2.681a.052.052 0 01-.039.015c-6.578-.304-11.873-5.599-12.177-12.177a.05.05 0 01.015-.039l2.236-2.237.002-.002 2.013-2.24.005-.007a8.338 8.338 0 001.399-4.6 8.34 8.34 0 00-2.426-5.856l-1.822-1.821-2.674-2.675-.011-.011A8.34 8.34 0 0012.789 0a8.34 8.34 0 00-5.856 2.426L5.09 4.269A17.262 17.262 0 000 16.557c0 2.411.49 4.756 1.457 6.964a56.158 56.158 0 0029.02 29.02A17.257 17.257 0 0037.443 54a17.26 17.26 0 0012.288-5.09l1.843-1.843A8.34 8.34 0 0054 41.21a8.34 8.34 0 00-2.426-5.857" mask="url(#prefix__b)"/>
    </g>
</svg>
