<svg xmlns="http://www.w3.org/2000/svg" xmlns:xlink="http://www.w3.org/1999/xlink" width="59" height="59" viewBox="0 0 59 59">
    <defs>
        <path id="prefix__a" d="M0.036 0L19 0 19 28.89 0.036 28.89z"/>
    </defs>
    <g fill="none" fill-rule="evenodd">
        <g transform="translate(40)">
            <mask id="prefix__b" fill="#fff">
                <use xlink:href="#prefix__a"/>
            </mask>
            <path fill="#0094D1" d="M16.25 9.704c0 1.273-.862 3.482-2.491 6.388-1.537 2.741-3.368 5.417-4.24 6.656-.873-1.239-2.704-3.915-4.241-6.656-1.63-2.906-2.491-5.115-2.491-6.388 0-3.799 3.02-6.89 6.731-6.89 3.712 0 6.732 3.091 6.732 6.89M9.518 0C4.29 0 .036 4.353.036 9.704c0 1.965 1.18 4.97 3.506 8.932C5.341 21.7 7.325 24.471 8.14 25.58v.024c0 .65 0 1.266-.016 1.841-.01.376.124.733.377 1.006s.594.429.967.439H9.5c.738 0 1.354-.615 1.374-1.37.015-.597.016-1.232.016-1.904v-.027c.814-1.108 2.797-3.877 4.597-6.94C17.818 14.68 19 11.67 19 9.703 19 4.353 14.746 0 9.518 0" mask="url(#prefix__b)"/>
        </g>
        <path fill="#0094D1" d="M49 7c-1.654 0-3 1.346-3 3s1.346 3 3 3 3-1.346 3-3-1.346-3-3-3M19.121 34.5a4.626 4.626 0 01-4.621 4.621A4.626 4.626 0 019.879 34.5a4.626 4.626 0 014.621-4.621 4.626 4.626 0 014.621 4.621M14.5 27C10.364 27 7 30.364 7 34.5s3.364 7.5 7.5 7.5 7.5-3.364 7.5-7.5-3.364-7.5-7.5-7.5M34.101 44.104a1.308 1.308 0 00-1.078.026c-.343.163-.607.46-.743.838-.527 1.463-1.186 3.17-2.074 4.731-.404.712-.195 1.644.467 2.08.221.144.475.221.733.221.495 0 .945-.27 1.203-.724 1.002-1.765 1.723-3.627 2.296-5.216.28-.776-.08-1.654-.804-1.956M25.816 52.352c-1.117 1.07-2.387 1.878-3.885 2.467-.707.278-1.095 1.2-.865 2.055.182.674.697 1.126 1.282 1.126.142 0 .282-.027.417-.08a14.415 14.415 0 004.725-3.011c.582-.56.68-1.587.22-2.292-.467-.705-1.316-.823-1.894-.265M38.973 36.054a1.336 1.336 0 00-1.068.14c-2 1.193-3.107 3.251-3.766 4.695a1.533 1.533 0 00-.059 1.127c.124.371.379.67.715.839.19.096.395.145.606.145.537 0 1.033-.328 1.265-.836.798-1.75 1.608-2.801 2.624-3.409.326-.194.56-.51.659-.89.1-.38.052-.777-.133-1.118a1.4 1.4 0 00-.843-.693M48.406 32.245c-.615-.442-1.457-.27-1.875.383-.35.549-1.074 1.303-3.302 1.515-.741.07-1.29.768-1.223 1.554.063.743.64 1.303 1.344 1.303.041 0 .083-.001.122-.006 2.53-.24 4.262-1.144 5.296-2.76.202-.317.276-.699.207-1.074-.068-.376-.27-.7-.569-.915"/>
        <path fill="#0094D1" d="M26.174 34.058c0 8.227-8.727 18.253-11.674 21.4-2.947-3.147-11.674-13.173-11.674-21.4 0-6.798 5.128-12.124 11.674-12.124 6.546 0 11.674 5.326 11.674 12.124M17.68 56.25c1.947-2.174 4.67-5.489 6.965-9.301C27.535 42.15 29 37.813 29 34.058 29 25.614 22.63 19 14.5 19 6.37 19 0 25.614 0 34.058c0 11.134 12.978 23.999 13.53 24.54.262.26.607.402.97.402.864 0 1.7-.032 2.488-.094.778-.061 1.362-.767 1.302-1.573a1.445 1.445 0 00-.61-1.082"/>
    </g>
</svg>
