<svg xmlns="http://www.w3.org/2000/svg" xmlns:xlink="http://www.w3.org/1999/xlink" width="98" height="92" viewBox="0 0 98 92">
    <defs>
        <path id="prefix__a" d="M0.061 0L31.993 0 31.993 44.829 0.061 44.829z"/>
    </defs>
    <g fill="none" fill-rule="evenodd">
        <g transform="translate(.28) translate(65.27)">
            <mask id="prefix__b" fill="#fff">
                <use xlink:href="#prefix__a"/>
            </mask>
            <path fill="#FFF" d="M27.362 15.057c0 1.976-1.45 5.404-4.194 9.914-2.588 4.253-5.672 8.405-7.14 10.328-1.47-1.922-4.553-6.075-7.141-10.328-2.744-4.51-4.195-7.938-4.195-9.914 0-5.894 5.085-10.69 11.335-10.69 6.25 0 11.335 4.796 11.335 10.69M16.027 0C7.224 0 .061 6.755.061 15.057c0 3.05 1.986 7.714 5.904 13.862 3.028 4.753 6.37 9.054 7.741 10.774v.037c0 1.01-.001 1.964-.027 2.858-.016.583.21 1.137.635 1.56.426.424 1.001.666 1.63.681h.053c1.242 0 2.28-.954 2.313-2.126.026-.926.027-1.911.027-2.954v-.042c1.371-1.719 4.71-6.017 7.741-10.77 3.925-6.157 5.915-10.827 5.915-13.88C31.993 6.755 24.831 0 16.027 0" mask="url(#prefix__b)"/>
        </g>
        <path fill="#FFF" d="M81.32 11c-2.95 0-5.35 2.243-5.35 5s2.4 5 5.35 5c2.95 0 5.35-2.243 5.35-5s-2.4-5-5.35-5M31.657 54.5c0 3.907-3.401 7.086-7.582 7.086-4.18 0-7.582-3.179-7.582-7.086 0-3.907 3.401-7.086 7.582-7.086 4.18 0 7.582 3.179 7.582 7.086M24.075 43C17.29 43 11.77 48.159 11.77 54.5S17.29 66 24.075 66 36.38 60.841 36.38 54.5 30.86 43 24.075 43M55.364 69.156c-.527-.22-1.1-.207-1.616.038-.513.245-.908.691-1.113 1.258-.79 2.194-1.776 4.754-3.107 7.097-.605 1.067-.291 2.466.7 3.119.332.217.711.332 1.098.332.742 0 1.416-.406 1.802-1.085 1.502-2.648 2.582-5.441 3.44-7.825.42-1.165-.121-2.481-1.204-2.934M44.478 80.587c-1.878 1.784-4.014 3.129-6.533 4.111-1.188.464-1.84 2-1.453 3.426.305 1.122 1.17 1.876 2.154 1.876.239 0 .475-.045.702-.133 2.996-1.168 5.669-2.857 7.945-5.02.978-.931 1.144-2.644.368-3.819-.785-1.174-2.212-1.372-3.183-.44M64.509 57.085c-.644-.165-1.32-.087-1.905.22-3.566 1.874-5.54 5.109-6.716 7.378-.29.559-.327 1.187-.105 1.771.222.583.675 1.051 1.276 1.317.339.152.702.229 1.08.229.957 0 1.842-.516 2.255-1.314 1.424-2.75 2.867-4.402 4.68-5.357.58-.305.998-.801 1.175-1.397.178-.597.093-1.222-.237-1.758-.328-.538-.862-.925-1.503-1.09M81.392 50.343c-1.035-.618-2.45-.378-3.154.537-.589.768-1.805 1.823-5.551 2.12-1.247.1-2.17 1.076-2.058 2.176.107 1.04 1.078 1.824 2.26 1.824.07 0 .14-.002.206-.008 4.254-.337 7.166-1.601 8.904-3.866.34-.443.464-.976.35-1.502-.116-.526-.455-.98-.957-1.28" transform="translate(.28)"/>
        <path fill="#FFF" d="M43.459 53.34c0 12.751-14.492 28.292-19.384 33.171C19.183 81.632 4.691 66.092 4.691 53.34c0-10.537 8.515-18.792 19.384-18.792 10.87 0 19.384 8.255 19.384 18.792m-14.104 34.4c3.232-3.37 7.752-8.509 11.564-14.418 4.798-7.438 7.231-14.161 7.231-19.982C48.15 40.252 37.575 30 24.075 30S0 40.252 0 53.34c0 17.257 21.547 37.198 22.464 38.038.436.401 1.008.622 1.611.622 1.434 0 2.824-.049 4.131-.145 1.29-.095 2.26-1.19 2.162-2.439-.054-.686-.43-1.295-1.013-1.677" transform="translate(.28)"/>
    </g>
</svg>
