<svg xmlns="http://www.w3.org/2000/svg" xmlns:xlink="http://www.w3.org/1999/xlink" width="84" height="43" viewBox="0 0 84 43">
    <defs>
        <path id="prefix__a" d="M0 0L84 0 84 42.638 0 42.638z"/>
    </defs>
    <g fill="none" fill-rule="evenodd">
        <mask id="prefix__b" fill="#fff">
            <use xlink:href="#prefix__a"/>
        </mask>
        <path fill="#990664" d="M74.996 27.773c-.22.03-.438.058-.658.078-.48.044-.975.072-1.498.076-.138.002-.275-.006-.413-.007-.409-.006-.81-.03-1.208-.063-.159-.014-.318-.024-.473-.041-.464-.053-.915-.13-1.355-.22-.07-.014-.138-.032-.209-.048l.004-.002c.212-.229.406-.464.573-.71.037-.054.064-.111.1-.167a4.93 4.93 0 00.305-.554c.042-.09.077-.181.112-.273.068-.171.122-.348.167-.526.021-.085.047-.17.064-.255.05-.263.082-.528.082-.802 0-.247-.023-.492-.067-.735h2.185a4 4 0 00.75-.08c.083-.014.163-.036.245-.057.158-.04.312-.09.463-.15.09-.034.18-.064.267-.106.19-.09.371-.19.545-.308.12-.08.228-.172.339-.263a4.688 4.688 0 00.52-.5c.032-.037.06-.077.091-.115.223-.275.414-.574.568-.898.006-.011.013-.02.016-.032 2.945.705 4.667 2.124 4.667 3.244-.002 1.295-2.314 3.007-6.182 3.514zm-.903 3.054c-.339 4.95-4.315 8.87-9.152 8.87H18.353c-4.858 0-8.848-3.952-9.156-8.932.392.04.794.068 1.202.085.134.006.268.008.404.012.164.003.325.014.492.014.128 0 .25-.01.378-.011l.394-.01c.386-.015.768-.039 1.14-.073h.004c2.28-.211 4.288-.792 5.857-1.646.006.004.015.006.022.01.463.248.969.468 1.497.666.083.031.163.065.248.094a15.623 15.623 0 001.944.544c.581.125 1.18.228 1.797.297.085.01.171.014.255.024.652.065 1.314.107 1.99.107 3.453 0 6.44-.823 8.477-2.163.268.175.555.341.854.497.08.043.17.078.253.12.243.119.49.235.748.34.127.052.26.099.39.148.228.085.46.169.7.245.147.047.296.088.448.131a15.9 15.9 0 001.2.294c.254.053.512.097.773.14.159.025.315.051.475.073.287.038.58.066.875.093.14.012.278.03.42.038.437.03.88.046 1.328.046 3.073 0 5.778-.654 7.775-1.743.006.005.015.007.022.01.463.25.969.468 1.497.667.083.031.163.064.248.094a15.27 15.27 0 001.944.544c.581.125 1.18.228 1.797.297.085.01.171.014.255.023.652.066 1.314.108 1.99.108.587 0 1.155-.031 1.715-.078.054-.005.106-.01.159-.013 1.82-.165 3.468-.563 4.858-1.152.14.06.302.097.448.152.33.125.664.24 1.014.345.256.077.516.144.783.209a18.679 18.679 0 001.966.362c.38.048.763.08 1.153.107.304.02.605.04.913.046.135.002.266.02.404.02.467 0 .924-.019 1.375-.048.007-.003.012-.003.015-.003zm-71.27-6.568c0-.99 1.407-2.31 4.04-3.075.022.044.05.083.074.126.07.126.14.253.222.37.114.166.239.324.372.47.075.081.155.153.236.229.102.095.208.186.318.274.078.06.154.12.237.175.188.124.383.24.589.333.048.022.098.036.148.056a3.924 3.924 0 00.778.23 4.2 4.2 0 00.751.077h8.904c.034.054.094.114.12.166l.004.01c.098.195.148.383.148.56 0 .171-.054.352-.132.536-.034.076-.087.156-.135.234-.061.1-.13.2-.213.301-.086.104-.18.208-.287.31-.07.065-.15.131-.23.197-.145.121-.291.243-.465.358-1.416.937-3.579 1.53-5.881 1.683-.118.008-.235.014-.355.018-.375.018-.752.028-1.13.02-.184-.002-.355-.017-.534-.026-.802-.038-1.601-.12-2.372-.273l-.475-.096c-2.988-.696-4.731-2.138-4.731-3.263zm22.735 3.624c-.114-.008-.226-.019-.341-.03-.329-.032-.653-.071-.971-.121-.09-.015-.183-.026-.274-.041-.396-.068-.78-.149-1.152-.245-.07-.017-.133-.038-.2-.056a12.959 12.959 0 01-.877-.274l-.155-.058c.32-.423.571-.87.74-1.34l.004-.011c.077-.218.137-.44.178-.666.004-.019.01-.037.013-.056a4.133 4.133 0 000-1.461h12.506c.028.046.078.095.102.14.008.019.015.036.024.052.088.188.14.371.14.543 0 .17-.054.35-.133.534-.026.057-.057.11-.088.167a2.56 2.56 0 01-.274.391 3.46 3.46 0 01-.264.28c-.077.074-.168.148-.257.221-.157.13-.32.257-.503.375-.046.03-.1.06-.148.089-.389.24-.826.455-1.304.646-.074.031-.143.064-.222.093-.235.088-.485.168-.738.244-.143.044-.295.084-.446.124a14.787 14.787 0 01-1.979.379c-.177.022-.356.037-.534.053-.508.044-1.026.081-1.58.081-.428-.001-.85-.022-1.267-.053zm16.618-.029c-.12-.012-.24-.022-.361-.037-.505-.057-1-.13-1.472-.23-.055-.013-.108-.029-.163-.04-.427-.096-.837-.211-1.228-.338-.098-.033-.198-.064-.292-.098a9.668 9.668 0 01-1.162-.492c-.021-.01-.039-.022-.06-.034.01-.014.016-.031.025-.046.085-.145.164-.292.235-.444.031-.066.057-.135.085-.201.05-.124.1-.249.138-.377.034-.106.055-.217.08-.326.022-.096.049-.19.063-.286a3.999 3.999 0 00-.014-1.38l13.913-.001c.034.054.093.113.12.166l.004.008c.098.196.148.384.148.56 0 .173-.054.354-.132.538-.034.076-.088.155-.136.233-.06.1-.128.2-.212.301-.086.105-.18.208-.287.31-.07.065-.15.132-.23.198-.145.12-.292.243-.465.357a8.07 8.07 0 01-1.517.772c-.451.18-.937.337-1.45.47-.048.014-.093.029-.145.04-.247.06-.5.113-.758.162-.358.067-.721.13-1.111.176-.141.017-.288.026-.432.04-.513.044-1.036.08-1.595.08-.54 0-1.068-.034-1.589-.08zm25.452-3.042c-.01.022-.014.044-.025.066-.08.159-.204.32-.338.482a4.457 4.457 0 01-.58.55 6.376 6.376 0 01-.617.426c-.068.04-.136.082-.207.122-.142.08-.29.158-.444.235-.828.4-1.785.71-2.82.92l-.012.001c-.5.102-1.02.179-1.553.231-.552.053-1.127.088-1.735.088a16.896 16.896 0 01-1.607-.082c-.328-.031-.652-.07-.97-.12-.09-.015-.184-.025-.275-.041-.395-.068-.78-.149-1.152-.244-.069-.018-.132-.039-.2-.058a12.307 12.307 0 01-1.032-.33c.32-.424.572-.871.74-1.342l.004-.01a4.24 4.24 0 00.178-.666l.014-.056a4.067 4.067 0 00-.004-1.46H67.51c.02.036.057.073.076.107a2.8 2.8 0 01.05.108c.077.178.13.353.13.52-.001.178-.055.363-.138.553zM9.177 12.497c0-5.27 4.116-9.558 9.176-9.558 2.362 0 4.56.928 6.268 2.609a12.782 12.782 0 00-2.033 6.949c0 .813.631 1.47 1.412 1.47.78 0 1.412-.657 1.412-1.47 0-5.145 3.927-9.343 8.822-9.539a8.816 8.816 0 015.49 2.194 12.762 12.762 0 00-2.312 7.345c0 .813.63 1.47 1.411 1.47s1.412-.657 1.412-1.47a9.73 9.73 0 012.472-6.505c.195-.218.398-.422.607-.618l.095-.09c.184-.167.375-.322.569-.472.066-.051.131-.106.198-.154.154-.113.314-.213.473-.315.112-.07.222-.147.338-.213.113-.065.23-.12.344-.18.162-.085.324-.173.492-.248.069-.03.142-.054.212-.084a9.16 9.16 0 01.647-.247c.033-.01.067-.017.1-.027.257-.081.517-.153.784-.211.022-.004.045-.005.068-.011a9 9 0 01.84-.135c.31-.032.624-.049.94-.049 2.17 0 4.201.782 5.842 2.213a12.762 12.762 0 00-2.313 7.344c0 .813.631 1.47 1.412 1.47.78 0 1.412-.657 1.412-1.47 0-2.513.943-4.796 2.472-6.505.195-.217.398-.421.607-.617.033-.03.062-.06.094-.09.184-.168.376-.322.57-.472.065-.051.13-.105.198-.154.154-.114.314-.213.473-.315.111-.07.222-.147.338-.213.112-.065.23-.12.344-.18.163-.084.323-.173.491-.248.07-.03.143-.054.213-.084.213-.088.427-.175.647-.247.032-.01.066-.017.1-.027.257-.082.517-.153.783-.21.023-.005.046-.007.068-.013a8.737 8.737 0 011.78-.183c5.06 0 9.177 4.287 9.177 9.556v6.488l-.02.206c-.002.03-.014.058-.017.09a1.52 1.52 0 01-.127.482c-.076.16-.178.304-.3.425-.014.013-.032.018-.046.032-.114.105-.24.195-.381.256-.162.067-.339.11-.524.11H10.588c-.183 0-.359-.043-.52-.109-.094-.04-.173-.106-.256-.166-.055-.04-.116-.069-.166-.116a1.42 1.42 0 01-.238-.32c-.02-.032-.046-.062-.062-.096a1.55 1.55 0 01-.122-.408c-.01-.066-.035-.128-.038-.197l-.01-.098v-5.797l.027-.254-.026-.524zM84 24.259c0-2.842-2.742-5.165-7.059-6.137v-4.89c0-.095-.007-.187-.018-.288l.001-.037c.01-.137.017-.272.017-.409 0-6.891-5.383-12.497-12-12.497-.378 0-.755.022-1.13.06-.186.018-.366.05-.548.078-.179.027-.357.05-.534.085-.233.046-.46.103-.69.163-.116.031-.233.06-.349.094-.256.076-.506.161-.752.252a11.455 11.455 0 00-1.023.435c-.066.031-.13.065-.193.097-.263.133-.52.272-.77.424-.054.032-.107.068-.159.1-.255.16-.507.325-.75.502-.046.034-.09.071-.135.106-.246.187-.488.378-.72.583l-.01.009c-2.16-1.912-4.92-2.985-7.765-2.985-.378 0-.755.022-1.13.06-.186.018-.367.05-.549.078-.178.027-.357.05-.533.086-.233.045-.46.102-.69.162-.117.032-.234.061-.35.095-.255.075-.505.16-.752.251-.083.032-.167.062-.248.096-.263.105-.521.216-.775.34-.066.03-.129.064-.192.097-.263.132-.52.272-.77.423-.055.033-.107.068-.159.1-.256.16-.507.325-.75.503-.047.034-.09.07-.136.106-.245.187-.488.378-.72.582l-.01.01A11.788 11.788 0 0034.794.05c-.07-.01-.131-.043-.203-.043-.113 0-.222.015-.333.018C34.13.013 34.008 0 33.882 0c-2.845 0-5.605 1.073-7.765 2.985C23.957 1.073 21.197 0 18.353 0c-6.617 0-12 5.607-12 12.498 0 .138.008.273.017.408v.036a2.538 2.538 0 00-.017.29v5.07C2.463 19.37 0 21.625 0 24.26c0 2.72 2.534 4.952 6.359 5.988.054 6.842 5.412 12.391 11.994 12.391h46.588c6.524 0 11.839-5.454 11.986-12.212C81.15 29.485 84 27.146 84 24.259z" mask="url(#prefix__b)"/>
    </g>
</svg>
