<svg xmlns="http://www.w3.org/2000/svg" xmlns:xlink="http://www.w3.org/1999/xlink" width="53" height="54" viewBox="0 0 53 54">
    <defs>
        <path id="prefix__a" d="M0.304 0.452L3.743 0.452 3.743 9 0.304 9z"/>
        <path id="prefix__c" d="M0.304 0.283L3.742 0.283 3.742 8.755 0.304 8.755z"/>
        <path id="prefix__e" d="M0.029 0.101L8.436 0.101 8.436 3.54 0.029 3.54z"/>
        <path id="prefix__g" d="M0 0.107L8.407 0.107 8.407 3.546 0 3.546z"/>
    </defs>
    <g fill="none" fill-rule="evenodd">
        <path fill="#33AB9F" d="M42.407 19c.239 0 .481-.07.702-.218l4.193-2.779c.67-.447.897-1.435.508-2.202-.39-.768-1.251-1.029-1.92-.584l-4.192 2.779c-.67.446-.897 1.435-.508 2.203.26.514.732.801 1.217.801M47.302 37.996l-4.192-2.778a1.241 1.241 0 00-1.065-.163c-.363.11-.666.375-.854.747-.188.372-.24.806-.144 1.221.096.416.328.765.653.982l4.189 2.776c.217.145.458.219.703.219.121 0 .242-.018.362-.055.363-.11.666-.376.855-.746.188-.372.24-.806.144-1.223a1.592 1.592 0 00-.651-.98"/>
        <g transform="translate(24 45)">
            <mask id="prefix__b" fill="#fff">
                <use xlink:href="#prefix__a"/>
            </mask>
            <path fill="#33AB9F" d="M3.737 2.114c.07-.85-.641-1.593-1.586-1.658H2.15C1.2.39.38 1.034.309 1.884a1.174 1.174 0 00-.002.186l.002 5.268c-.07.851.642 1.594 1.587 1.657.043.004.086.005.129.005.89 0 1.645-.621 1.712-1.432a1.03 1.03 0 00.002-.186l-.002-5.268z" mask="url(#prefix__b)"/>
        </g>
        <path fill="#33AB9F" d="M4.7 16.004l4.19 2.778c.22.148.464.218.703.218.484 0 .957-.287 1.217-.801.389-.768.161-1.756-.508-2.203l-4.191-2.778c-.67-.446-1.532-.186-1.921.583-.39.768-.161 1.756.51 2.203"/>
        <g transform="translate(24)">
            <mask id="prefix__d" fill="#fff">
                <use xlink:href="#prefix__c"/>
            </mask>
            <path fill="#33AB9F" d="M.307 7.216c.005.844.772 1.534 1.713 1.539.948 0 1.719-.694 1.719-1.548l-.001-5.263A1.44 1.44 0 003.325.82 1.778 1.778 0 002.15.287C1.21.227.38.864.31 1.715a1.017 1.017 0 00-.002.185v5.316z" mask="url(#prefix__d)"/>
        </g>
        <path fill="#33AB9F" d="M15.994 11.302c.299.448.84.698 1.396.698.275 0 .553-.061.808-.19.372-.189.637-.492.748-.855.11-.362.051-.74-.164-1.064L16.007 5.7a1.593 1.593 0 00-.982-.652 1.814 1.814 0 00-1.222.143c-.373.19-.638.493-.749.856-.11.363-.051.741.164 1.064l2.776 4.192z"/>
        <g transform="translate(44 25)">
            <mask id="prefix__f" fill="#fff">
                <use xlink:href="#prefix__e"/>
            </mask>
            <path fill="#33AB9F" d="M6.96.105L1.69.107A1.425 1.425 0 00.567.519a1.78 1.78 0 00-.532 1.175c-.03.457.1.901.37 1.249a1.488 1.488 0 001.175.597.562.562 0 00.068-.003l5.357-.002a1.488 1.488 0 001.057-.592c.27-.348.401-.792.37-1.25C8.377.853 7.763.17 6.96.106" mask="url(#prefix__f)"/>
        </g>
        <g transform="translate(0 25)">
            <mask id="prefix__h" fill="#fff">
                <use xlink:href="#prefix__g"/>
            </mask>
            <path fill="#33AB9F" d="M6.863 3.546c.37 0 .723-.146 1.007-.416.313-.3.502-.718.532-1.176.032-.458-.1-.902-.37-1.25A1.49 1.49 0 006.974.112 1.158 1.158 0 006.79.11L1.432.112C.582.182-.059 1.01.004 1.954c.057.842.67 1.524 1.473 1.588l5.268-.002c.04.004.079.006.118.006" mask="url(#prefix__h)"/>
        </g>
        <path fill="#33AB9F" d="M38.78 27.018c0 3.386-1.277 6.57-3.597 8.965-2.32 2.395-5.404 3.713-8.685 3.713-3.281 0-6.365-1.318-8.685-3.713-2.324-2.399-3.601-5.59-3.598-8.984-.003-3.15 1.163-6.236 3.218-8.555l.38-.392c2.32-2.395 5.404-3.713 8.685-3.713 3.28 0 6.365 1.318 8.685 3.713 2.32 2.395 3.598 5.579 3.598 8.966M26.502 11h-.001C17.956 11 11 18.177 11 26.998c0 4.275 1.613 8.295 4.541 11.317C18.42 41.293 22.405 43 26.478 43h.022c4.14 0 8.031-1.664 10.959-4.684 2.927-3.022 4.54-7.04 4.541-11.313C42.001 18.18 35.049 11 26.502 11M37.003 43.698c-.447-.67-1.433-.897-2.203-.509-.767.39-1.028 1.252-.582 1.92l2.777 4.19c.298.45.84.701 1.396.701.272 0 .549-.06.801-.187.373-.187.64-.49.752-.853a1.238 1.238 0 00-.16-1.065l-2.781-4.197zM34.722 11.767l.078.042c.254.13.533.191.808.191.54 0 1.068-.237 1.372-.664l.014-.019.008-.013 2.78-4.194c.446-.67.185-1.53-.583-1.92a1.808 1.808 0 00-1.221-.143 1.594 1.594 0 00-.981.653l-2.775 4.186a1.238 1.238 0 00-.17 1.064c.102.339.338.625.67.817M18.2 43.19c-.767-.39-1.756-.161-2.204.51l-2.777 4.189a1.24 1.24 0 00-.165 1.065c.11.363.376.667.748.855a1.813 1.813 0 001.222.144c.416-.097.764-.328.981-.654l2.777-4.188c.446-.67.185-1.531-.582-1.921M10.81 35.8c-.39-.766-1.252-1.028-1.919-.583L4.7 37.997a1.591 1.591 0 00-.652.98c-.095.415-.045.85.144 1.222.188.371.492.637.855.747a1.245 1.245 0 001.064-.164l4.192-2.779c.669-.445.897-1.433.508-2.202z"/>
    </g>
</svg>
