<?xml version="1.0" encoding="UTF-8"?>
<svg width="87px" height="89px" viewBox="0 0 87 89" version="1.1" xmlns="http://www.w3.org/2000/svg" xmlns:xlink="http://www.w3.org/1999/xlink">
    <!-- Generator: Sketch 54.1 (76490) - https://sketchapp.com -->
    <title>Group 31</title>
    <desc>Created with Sketch.</desc>
    <defs>
        <polygon id="path-1" points="0.531671431 0.752613053 6.54946238 0.752613053 6.54946238 15 0.531671431 15"></polygon>
        <polygon id="path-3" points="0.531387625 0.472 6.54899577 0.472 6.54899577 14.5914 0.531387625 14.5914"></polygon>
        <polygon id="path-5" points="0.0488418048 0.176537223 14.06 0.176537223 14.06 6.19476667 0.0488418048 6.19476667"></polygon>
        <polygon id="path-7" points="0 0.188088097 14.0113939 0.188088097 14.0113939 6.2048 0 6.2048"></polygon>
    </defs>
    <g id="Page-1" stroke="none" stroke-width="1" fill="none" fill-rule="evenodd">
        <g id="YTQP_Web_Turismo-Comunitario_v1_2_pop" transform="translate(-774.000000, -848.000000)">
            <g id="Group-31" transform="translate(774.000000, 848.000000)">
                <path d="M70.210655,31 C70.5860304,31 70.9674186,30.8829796 71.3144476,30.6374459 L77.9028435,26.0057386 C78.9550971,25.2607787 79.3132929,23.6141351 78.7008383,22.3342251 C78.0892428,21.054315 76.7354863,20.6207128 75.6849507,21.3614934 L69.0974137,25.9932007 C68.0451601,26.7371158 67.6869643,28.3848041 68.2985599,29.6647142 C68.7082946,30.5214703 69.4495965,31 70.210655,31" id="Fill-1" fill="#FFFFFF"></path>
                <path d="M77.9026902,62.9939713 L71.3164983,58.3639432 C70.8063668,58.0067427 70.2155075,57.9054315 69.6426831,58.0913428 C69.0724352,58.2741208 68.5957972,58.7169658 68.2995088,59.3363222 C68.0040791,59.956723 67.9233512,60.6794795 68.0745013,61.371947 C68.2247925,62.065459 68.5889268,62.6461709 69.1007758,63.0085936 L75.6826738,67.6354884 C76.0236202,67.8767554 76.403213,68 76.7879586,68 C76.9777549,68 77.1684101,67.9707555 77.3564889,67.9091332 C77.9267368,67.7253108 78.4033748,67.2824657 78.6996632,66.6651983 C78.9959517,66.0447975 79.0766796,65.322041 78.9255295,64.6274845 C78.7752383,63.935017 78.4119629,63.3553496 77.9026902,62.9939713" id="Fill-3" fill="#FFFFFF"></path>
                <g id="Group-7" transform="translate(39.000000, 74.000000)">
                    <mask id="mask-2" fill="white">
                        <use xlink:href="#path-1"></use>
                    </mask>
                    <g id="Clip-6"></g>
                    <path d="M6.54021667,3.5235 C6.66271667,2.1065 5.41788333,0.8675 3.76471667,0.7605 L3.76238333,0.7605 C2.10221667,0.6495 0.663716667,1.7235 0.54005,3.1395 C0.52955,3.2665 0.52955,3.3955 0.53655,3.4495 L0.54005,12.2295 C0.41755,13.6485 1.66355,14.8875 3.31788333,14.9925 C3.39371667,14.9975 3.46838333,15.0005 3.54305,15.0005 C5.10171667,15.0005 6.42238333,13.9645 6.54021667,12.6135 C6.55188333,12.4855 6.55188333,12.3565 6.54371667,12.3035 L6.54021667,3.5235 Z" id="Fill-5" fill="#FFFFFF" mask="url(#mask-2)"></path>
                </g>
                <path d="M8.09910693,26.0074968 L14.6834328,30.6374218 C15.0313326,30.8829719 15.4127338,31 15.788981,31 C16.5500655,31 17.2922517,30.5214386 17.7020004,29.6646255 C18.3127578,28.3846305 17.9545499,26.7378776 16.9031194,25.9939131 L10.3170755,21.3629432 C9.26306798,20.6200236 7.91012432,21.0536546 7.29850789,22.3346946 C6.68689145,23.6146896 7.04509939,25.2614425 8.09910693,26.0074968" id="Fill-8" fill="#FFFFFF"></path>
                <g id="Group-12" transform="translate(39.000000, 0.000000)">
                    <mask id="mask-4" fill="white">
                        <use xlink:href="#path-3"></use>
                    </mask>
                    <g id="Clip-11"></g>
                    <path d="M0.537133333,12.0274 C0.546466667,13.4334 1.88813333,14.5834 3.53546667,14.5914 C5.19446667,14.5914 6.54313333,13.4344 6.54313333,12.0124 L6.5408,3.2404 C6.59913333,2.5534 6.3448,1.8884 5.81863333,1.3664 C5.2948,0.8444 4.56446667,0.5294 3.76296667,0.4784 C2.1168,0.3774 0.6643,1.4404 0.540633333,2.8584 C0.528966667,2.9854 0.528966667,3.1134 0.537133333,3.1664 L0.537133333,12.0274 Z" id="Fill-10" fill="#FFFFFF" mask="url(#mask-4)"></path>
                </g>
                <path d="M25.9892748,18.8034019 C26.4879111,19.5708364 27.390056,20 28.3172895,20 C28.7751567,20 29.2382508,19.8950517 29.6626666,19.6748477 C30.2825645,19.3506324 30.7257967,18.8305761 30.9097799,18.2093196 C31.0927178,17.5880631 30.9954994,16.9405696 30.6358959,16.3849058 L26.0112273,9.19875824 C25.6495331,8.64215742 25.0693588,8.24485313 24.3752404,8.08087141 C23.6821673,7.91688969 22.9587789,8.00403426 22.3378356,8.32637547 C21.7168923,8.65059076 21.2747054,9.17064708 21.0907222,9.79284059 C20.906739,10.4150341 21.0050028,11.0634647 21.3635609,11.6163173 L25.9892748,18.8034019 Z" id="Fill-13" fill="#FFFFFF"></path>
                <g id="Group-17" transform="translate(72.000000, 41.000000)">
                    <mask id="mask-6" fill="white">
                        <use xlink:href="#path-5"></use>
                    </mask>
                    <g id="Clip-16"></g>
                    <path d="M11.5991,0.182933333 L2.8181,0.186433333 C2.1311,0.1211 1.4651,0.381266667 0.9441,0.907433333 C0.4221,1.43243333 0.1071,2.16276667 0.0561,2.96426667 C0.0051,3.7646 0.2241,4.5416 0.6741,5.14943333 C1.1231,5.75843333 1.7491,6.12593333 2.4351,6.18543333 C2.5051,6.19126667 2.5751,6.19476667 2.6321,6.19476667 C2.6801,6.19476667 2.7201,6.19243333 2.7451,6.18893333 L11.6731,6.18543333 C12.3601,6.12593333 12.9861,5.75843333 13.4351,5.14943333 C13.8841,4.5416 14.1041,3.7646 14.0531,2.96426667 C13.9601,1.49076667 12.9371,0.2961 11.5991,0.182933333" id="Fill-15" fill="#FFFFFF" mask="url(#mask-6)"></path>
                </g>
                <g id="Group-20" transform="translate(0.000000, 41.000000)">
                    <mask id="mask-8" fill="white">
                        <use xlink:href="#path-7"></use>
                    </mask>
                    <g id="Clip-19"></g>
                    <path d="M11.4389,6.2048 C12.0549,6.2048 12.6439,5.95046667 13.1159,5.4768 C13.6379,4.9518 13.9539,4.22146667 14.0039,3.41996667 C14.0559,2.61846667 13.8359,1.84146667 13.3869,1.23246667 C12.9369,0.623466667 12.3109,0.255966667 11.6239,0.196466667 C11.4959,0.185966667 11.3679,0.185966667 11.3159,0.192966667 L2.3869,0.196466667 C0.9689,0.320133333 -0.0991,1.76563333 0.0069,3.4188 C0.1009,4.89346667 1.1239,6.08696667 2.4609,6.19896667 L11.2409,6.19546667 C11.3079,6.2013 11.3729,6.2048 11.4389,6.2048" id="Fill-18" fill="#FFFFFF" mask="url(#mask-8)"></path>
                </g>
                <path d="M63.7037557,44.529033 C63.7037557,50.1380053 61.6011379,55.4118246 57.7850581,59.3776308 C53.9679981,63.3444558 48.8942686,65.5285525 43.4970594,65.5285525 C38.09887,65.5285525 33.0251405,63.3444558 29.2090607,59.3776308 C25.385139,55.4046937 23.2835014,50.1206873 23.2893829,44.4984719 C23.2835014,39.2806812 25.2028141,34.1698541 28.5836667,30.3293482 L29.2090607,29.6794165 C33.0251405,25.7136102 38.09887,23.5295135 43.4970594,23.5295135 C48.8942686,23.5295135 53.9679981,25.7136102 57.7850581,29.6794165 C61.6011379,33.6462414 63.7037557,38.9200607 63.7037557,44.529033 M43.5039211,18 L43.5009804,18 C29.4433384,18 18.002941,29.8862129 18.0000003,44.4964345 C17.99902,51.5774309 20.6535138,58.2346474 25.4714002,63.2405482 C30.2059662,68.1731024 36.762801,71 43.4637312,71 L43.5,71 C50.3097372,71 56.712674,68.2444116 61.5286,63.2415669 C66.3455063,58.2366848 68.9990198,51.5825245 69,44.5045842 C69.0019605,29.8913064 57.5645038,18.0020374 43.5039211,18" id="Fill-21" fill="#FFFFFF"></path>
                <path d="M61.0044372,72.1962675 C60.2607436,71.0484294 58.6166794,70.65957 57.3329723,71.3248476 C56.0544878,71.9938732 55.6199702,73.4706019 56.3626193,74.6146919 L60.991903,81.7996894 C61.4890915,82.5689751 62.3915511,83 63.3190791,83 C63.7723979,83 64.2330284,82.8969288 64.6539673,82.6795424 C65.2754528,82.3581477 65.7214601,81.8390438 65.906339,81.2178058 C66.0933069,80.5965677 65.9982562,79.9472194 65.6399881,79.3906351 L61.0044372,72.1962675 Z" id="Fill-23" fill="#FFFFFF"></path>
                <path d="M57.2033951,19.6000709 L57.3328971,19.6731258 C57.7569117,19.8951006 58.2216568,20 58.6801357,20 C59.5814279,20 60.4607882,19.5935146 60.9673082,18.8620283 L60.98924,18.8292472 C60.9944618,18.8217544 60.9986393,18.8142616 61.0038612,18.8067688 L65.6377353,11.6174101 C66.380283,10.4691358 65.9447803,8.99305072 64.6654259,8.32712654 C64.0461139,8.00399877 63.3234091,7.91689477 62.6299468,8.08080015 C61.9364845,8.24564215 61.3568586,8.64182488 60.9944618,9.20003981 L56.3699871,16.376286 C56.006546,16.9298179 55.9073307,17.5779467 56.0880069,18.1998505 C56.2561506,18.7805439 56.6498785,19.2722601 57.2033951,19.6000709" id="Fill-25" fill="#FFFFFF"></path>
                <path d="M29.666353,71.3255588 L29.6653083,71.3255588 C28.3876666,70.6584479 26.7402088,71.0491575 25.9932638,72.1997365 L21.3653385,79.3805485 C21.0049245,79.935225 20.9067247,80.5845338 21.0905881,81.2066709 C21.2744515,81.8288081 21.7163504,82.3497542 22.3368894,82.6720663 C22.7516267,82.8894395 23.2133746,83 23.6813905,83 C23.9122644,83 24.144183,82.9737653 24.3729676,82.918485 C25.066634,82.7535812 25.6474752,82.3563129 26.0089339,81.7988256 L30.6368592,74.6180136 C31.3806702,73.4702455 30.9450393,71.9936067 29.666353,71.3255588" id="Fill-27" fill="#FFFFFF"></path>
                <path d="M17.7016469,59.3345611 C17.0892294,58.0558996 15.734696,57.6202772 14.6859418,58.3609398 L8.09880358,62.9939984 C7.58859885,63.3544055 7.22527123,63.9341907 7.07409946,64.626799 C6.92378662,65.320452 7.00366716,66.0444 7.29999819,66.664927 C7.59632922,67.2833645 8.07389459,67.7262996 8.64336553,67.9101594 C8.83147132,67.9707496 9.02301283,68 9.21197754,68 C9.59677842,68 9.97642571,67.877775 10.3157033,67.636459 L16.9028415,63.0054897 C17.9541724,62.2627377 18.3132054,60.6163566 17.7016469,59.3356058 L17.7016469,59.3345611 Z" id="Fill-29" fill="#FFFFFF"></path>
            </g>
        </g>
    </g>
</svg>