<svg xmlns="http://www.w3.org/2000/svg" xmlns:xlink="http://www.w3.org/1999/xlink" width="126" height="159" viewBox="0 0 126 159">
    <defs>
        <path id="a" d="M0 .496h125.48v123.868H0z"/>
    </defs>
    <g fill="none" fill-rule="evenodd">
        <path fill="#FFF" d="M11.172 61.856l-.022-.001a1.58 1.58 0 0 1-1.515-1.643 1.58 1.58 0 0 1 1.655-1.506h.021c.877.04 1.553.778 1.515 1.642a1.587 1.587 0 0 1-1.654 1.508M13.668 49.985l-3.814 1.438c-.186.07-.395.1-.622.04a.793.793 0 0 1-.544-.992c.102-.357.36-.527.702-.643l3.015-1.043-2.057-2.46c-.236-.27-.355-.557-.264-.883.135-.478.554-.672.988-.553.216.059.385.214.5.355l2.504 3.162 2.089.569a.81.81 0 0 1 .575 1.001.823.823 0 0 1-1.016.57l-2.056-.561zM14.03 45.502l-.02-.008c-1.949-.851-2.864-3.068-1.929-5.158.938-2.09 3.188-2.898 5.137-2.047l.022.01c1.948.85 2.864 3.068 1.926 5.158-.936 2.088-3.186 2.898-5.135 2.045m2.53-5.637l-.02-.01c-1.176-.514-2.539-.092-3.076 1.11-.538 1.199.048 2.45 1.225 2.965l.019.008c1.177.514 2.538.09 3.076-1.11.537-1.2-.05-2.451-1.225-2.963M21.676 36.747a.78.78 0 0 1-.686-.105.746.746 0 0 1-.172-1.057.816.816 0 0 1 .397-.295c.67-.216 1.239-.566 1.665-1.153.391-.54.41-1.023.051-1.273l-.018-.014c-.338-.238-.663-.155-1.653.668-1.192.993-2.097 1.537-3.308.68l-.019-.009c-1.107-.782-1.203-2.176-.315-3.407.53-.731 1.184-1.232 1.923-1.528a.756.756 0 0 1 .743.082c.348.245.42.71.17 1.053a.767.767 0 0 1-.336.269c-.58.255-1.03.564-1.326.977-.366.509-.325.94-.03 1.15l.018.013c.402.283.72.116 1.743-.735 1.206-.996 2.15-1.37 3.212-.62l.018.013c1.21.853 1.232 2.245.292 3.545a4.847 4.847 0 0 1-2.369 1.746M23.018 29.872l-.015-.015C21.472 28.391 21.391 26 23 24.36c1.613-1.64 4.008-1.63 5.538-.167l.015.017c1.532 1.467 1.613 3.857.002 5.496-1.611 1.641-4.005 1.633-5.537.167m4.35-4.426l-.017-.015c-.92-.884-2.347-.952-3.272-.011-.925.942-.814 2.315.11 3.2l.016.015c.922.884 2.347.95 3.272.01.925-.94.814-2.316-.109-3.2M31.337 23.207l-3.92-1.13a1.008 1.008 0 0 1-.519-.341c-.267-.344-.19-.842.176-1.116.297-.226.608-.207.951-.094l3.042.969-.132-3.186c-.022-.358.058-.656.33-.862.4-.301.853-.203 1.125.15.138.177.176.398.182.583l.057 4.012 1.313 1.699a.8.8 0 0 1-.154 1.14.826.826 0 0 1-1.158-.154l-1.293-1.67zM37.93 15.396l-1.416.698a.77.77 0 0 1-1.022-.335.752.752 0 0 1 .34-1.01l4.315-2.124a.767.767 0 0 1 1.021.336.749.749 0 0 1-.341 1.006l-1.418.7 2.33 4.608a.805.805 0 0 1-.368 1.094.827.827 0 0 1-1.11-.365l-2.33-4.608zM43.433 15.752l-1.089-3.307a.807.807 0 0 1 .53-1.028.82.82 0 0 1 1.038.522l1.074 3.27c.378 1.147 1.156 1.554 2.112 1.247.958-.308 1.35-1.067.983-2.183l-1.092-3.32a.805.805 0 0 1 .529-1.025c.439-.14.898.09 1.04.524l1.072 3.258c.702 2.13-.166 3.567-2.08 4.18-1.917.614-3.437-.066-4.117-2.138M50.355 10.055a.81.81 0 0 1 .668-.946l2.563-.45c.94-.163 1.714-.03 2.286.362.482.335.807.869.933 1.554l.004.023c.207 1.144-.247 1.954-1.08 2.478l1.373 1.155c.196.169.33.318.375.566.08.45-.247.809-.639.877-.37.064-.641-.07-.873-.276l-1.94-1.7-1.298.225.287 1.594a.807.807 0 0 1-.668.943.817.817 0 0 1-.956-.658l-1.035-5.747zm3.763 2.163c.792-.137 1.17-.635 1.06-1.248l-.004-.021c-.124-.686-.673-.956-1.465-.819l-1.613.285.376 2.091 1.646-.288zM58.05 8.849a.813.813 0 0 1 .762-.873c.46-.034.85.3.884.755l.429 5.887a.812.812 0 0 1-.764.87.815.815 0 0 1-.882-.752l-.43-5.887zM61.21 14.475a.756.756 0 0 1 .494-1.355.799.799 0 0 1 .467.16c.557.424 1.172.694 1.901.71.675.017 1.088-.238 1.1-.673v-.02c.01-.412-.244-.63-1.49-.977-1.5-.417-2.466-.85-2.431-2.32v-.022c.035-1.343 1.147-2.205 2.68-2.17.909.02 1.696.272 2.36.71a.73.73 0 0 1 .349.654.75.75 0 0 1-.787.733.776.776 0 0 1-.415-.126c-.539-.327-1.05-.52-1.566-.532-.63-.016-.97.262-.977.622v.02c-.011.487.305.654 1.595 1.01 1.512.43 2.354.987 2.324 2.277v.021c-.036 1.47-1.193 2.268-2.808 2.232a4.904 4.904 0 0 1-2.797-.954M68.59 8.86a.819.819 0 0 1 .958-.658l.179.03a.846.846 0 0 1 .661.548l1.393 3.498 2.542-2.816a.818.818 0 0 1 .803-.278l.179.033a.81.81 0 0 1 .668.944l-1.048 5.79a.82.82 0 0 1-.958.655.813.813 0 0 1-.656-.942l.658-3.633-1.817 1.915c-.212.219-.453.338-.748.286-.295-.05-.477-.245-.601-.524l-1.017-2.382-.654 3.623a.804.804 0 0 1-.944.638.785.785 0 0 1-.65-.918l1.052-5.81zM76.69 13.376l.008-.022c.733-1.976 2.913-3.022 5.086-2.238 2.173.785 3.14 2.949 2.405 4.924l-.006.021c-.733 1.975-2.913 3.022-5.084 2.237-2.174-.786-3.14-2.947-2.409-4.922m5.865 2.119l.008-.021c.441-1.19-.076-2.502-1.323-2.954-1.246-.452-2.473.208-2.915 1.4l-.007.022c-.443 1.19.074 2.504 1.321 2.954 1.248.451 2.473-.212 2.916-1.401M86.05 20.33a.752.752 0 0 1 .063-.682.766.766 0 0 1 1.058-.237c.18.11.272.252.323.371.26.645.655 1.183 1.275 1.561.572.352 1.059.337 1.291-.03l.012-.019c.22-.352.112-.663-.785-1.586-1.08-1.109-1.689-1.965-.906-3.217l.011-.016c.718-1.144 2.119-1.33 3.423-.535.773.471 1.325 1.083 1.673 1.795a.73.73 0 0 1-.035.736.762.762 0 0 1-1.056.238.77.77 0 0 1-.293-.316c-.294-.552-.637-.972-1.074-1.24-.537-.331-.972-.26-1.162.047l-.012.02c-.26.414-.073.713.855 1.667 1.086 1.123 1.527 2.026.84 3.124l-.01.018c-.785 1.25-2.192 1.361-3.568.52a4.784 4.784 0 0 1-1.923-2.219M91.436 23.657l3.698-4.472a.829.829 0 0 1 1.162-.116l3.218 2.594a.727.727 0 0 1 .106 1.027.739.739 0 0 1-1.035.097l-2.587-2.088-.962 1.163 2.215 1.786a.723.723 0 0 1 .105 1.026.739.739 0 0 1-1.035.098l-2.215-1.786-.996 1.203 2.63 2.12a.728.728 0 0 1 .107 1.027.74.74 0 0 1-1.034.095l-3.261-2.628a.8.8 0 0 1-.116-1.146M98.374 25.573l.017-.014c1.573-1.417 3.981-1.37 5.513.286.766.828 1.08 1.545 1.187 2.351a.803.803 0 0 1-.259.691.82.82 0 0 1-1.15-.052.778.778 0 0 1-.212-.481c-.068-.542-.249-1.02-.725-1.535-.812-.874-2.237-.864-3.177-.017l-.015.015c-1.011.911-1.122 2.268-.226 3.238.403.437.877.729 1.38.833l.79-.713-.75-.813a.691.691 0 0 1 .037-.994.724.724 0 0 1 1.013.046l1.273 1.375a.802.802 0 0 1-.053 1.152l-1.346 1.21c-.356.321-.723.41-1.165.277a4.986 4.986 0 0 1-2.32-1.414c-1.576-1.703-1.45-3.965.188-5.44M103.512 32.047l2.943-1.916a.827.827 0 0 1 1.143.232.798.798 0 0 1-.233 1.128l-2.908 1.893c-1.021.664-1.21 1.51-.655 2.34.554.83 1.401 1.001 2.392.355l2.951-1.923a.826.826 0 0 1 1.144.234.8.8 0 0 1-.234 1.126l-2.898 1.887c-1.896 1.235-3.529.792-4.638-.87-1.11-1.658-.848-3.287.993-4.486M110.9 37.197a.82.82 0 0 1 1.093.398l1.092 2.33c.405.856.471 1.63.23 2.275-.203.548-.644.993-1.286 1.286l-.018.011c-1.07.486-1.98.26-2.702-.4l-.782 1.603c-.116.23-.227.398-.461.506-.418.19-.852-.033-1.018-.388-.157-.334-.096-.632.045-.907l1.173-2.284-.553-1.18-1.487.68a.82.82 0 0 1-1.093-.397.797.797 0 0 1 .402-1.08l5.365-2.453zm-1.162 4.144c.337.72.92.955 1.492.692l.02-.008c.642-.293.766-.886.428-1.606l-.688-1.47-1.954.894.702 1.498zM111.226 44.868l.021-.007c2.053-.573 4.19.555 4.82 2.75.632 2.199-.574 4.242-2.625 4.815l-.021.005c-2.05.574-4.19-.553-4.82-2.75-.632-2.197.576-4.239 2.625-4.813m1.704 5.93l.021-.005c1.235-.347 2.01-1.528 1.648-2.79-.363-1.262-1.623-1.856-2.86-1.509l-.02.005c-1.236.347-2.012 1.53-1.649 2.792.362 1.261 1.623 1.854 2.86 1.507M114.222 59.255l.022-.002a1.583 1.583 0 0 1 1.636 1.525 1.579 1.579 0 0 1-1.532 1.625h-.021a1.582 1.582 0 0 1-1.638-1.522 1.58 1.58 0 0 1 1.533-1.626M14.934 71.933a.772.772 0 0 1 .945.555l.522 2.014c.416 1.612-.298 2.83-1.697 3.183l-.017.005c-1.583.398-2.72-.609-3.111-2.124l-.292-1.13-1.358.345a.773.773 0 0 1-.945-.555.756.756 0 0 1 .559-.931l5.394-1.362zm-2.007 3.343c.19.743.754 1.064 1.34.915l.017-.005c.677-.17.919-.723.725-1.466l-.297-1.147-2.09.527.305 1.176zM13.731 78.4l.017-.008c1.855-.756 3.978.069 4.809 2.057.83 1.987-.075 4.022-1.926 4.78l-.02.008c-1.855.756-3.977-.069-4.808-2.057-.832-1.986.072-4.022 1.928-4.78m2.243 5.363l.018-.008c1.118-.455 1.711-1.643 1.232-2.786-.476-1.138-1.72-1.557-2.836-1.102l-.02.006c-1.12.457-1.71 1.646-1.233 2.787.477 1.14 1.72 1.56 2.84 1.103M19.49 84.714a.774.774 0 0 1 1.064.269l1.25 2.078c.459.759.598 1.479.435 2.106-.137.533-.505.991-1.077 1.327l-.017.01c-.953.56-1.828.433-2.567-.115l-.576 1.576c-.087.224-.175.393-.383.514-.372.219-.8.052-.992-.264-.18-.3-.151-.58-.044-.854l.874-2.248-.632-1.054-1.326.779a.779.779 0 0 1-1.066-.269.754.754 0 0 1 .27-1.048l4.786-2.807zm-.684 3.99c.387.641.954.805 1.466.505l.016-.01c.574-.335.632-.903.246-1.543l-.79-1.31-1.74 1.022.802 1.336zM20.475 91.707l.017-.013c1.556-1.248 3.829-1.06 5.203.607 1.376 1.67 1.102 3.877-.454 5.129l-.017.011a3.654 3.654 0 0 1-1.967.784l-.004.388a.749.749 0 0 1-.275.58.737.737 0 0 1-1.03-.098.721.721 0 0 1-.16-.525l.027-.507a3.847 3.847 0 0 1-1.796-1.23c-1.374-1.668-1.099-3.876.456-5.126m1.698 3.307a.74.74 0 0 1 1.03.098c.135.162.168.313.16.526l-.05 1.027c.297-.081.598-.234.872-.456l.015-.012c.94-.754 1.162-2.061.373-3.02-.79-.958-2.104-1.005-3.04-.252l-.018.013c-.937.752-1.16 2.062-.372 3.02.216.262.463.464.735.59l.02-.951a.757.757 0 0 1 .275-.583M25.55 98.43l2.228-2.423a.779.779 0 0 1 1.098-.054.75.75 0 0 1 .05 1.081l-2.199 2.396c-.774.84-.746 1.657-.045 2.287.702.627 1.514.588 2.265-.23l2.234-2.432a.778.778 0 0 1 1.1-.052c.32.284.344.764.052 1.081l-2.194 2.39c-1.438 1.56-3.03 1.531-4.433.276-1.404-1.258-1.553-2.8-.156-4.32M29.833 105.08l3.129-4.475a.779.779 0 0 1 1.08-.194l3.22 2.194a.684.684 0 0 1 .179.954.696.696 0 0 1-.964.169l-2.59-1.766-.814 1.165 2.218 1.509a.681.681 0 0 1 .175.954.695.695 0 0 1-.963.168l-2.214-1.51-.84 1.206 2.628 1.788a.684.684 0 1 1-.784 1.125l-3.262-2.224a.752.752 0 0 1-.198-1.064M38.619 107.475l.008-.02c.827-1.803 2.881-2.667 4.857-1.787.963.43 1.5.975 1.855 1.602a.762.762 0 0 1 .022.678.76.76 0 0 1-1.01.368.808.808 0 0 1-.36-.326c-.263-.465-.601-.812-1.107-1.037-1.082-.485-2.273.055-2.768 1.145l-.01.018c-.498 1.088-.15 2.334.955 2.826.595.267 1.072.262 1.62.124a.752.752 0 0 1 .495.035c.36.159.529.584.368.937a.724.724 0 0 1-.47.393c-.805.242-1.622.237-2.65-.22-1.895-.845-2.639-2.915-1.805-4.736M44.877 110.268l.007-.018c.557-1.903 2.534-3.029 4.628-2.432 2.095.598 3.145 2.564 2.586 4.47l-.003.019c-.557 1.901-2.537 3.029-4.629 2.43-2.093-.597-3.146-2.564-2.589-4.47m5.651 1.613l.005-.018c.337-1.15-.237-2.348-1.439-2.692-1.202-.342-2.309.357-2.645 1.505l-.005.02c-.337 1.149.237 2.348 1.437 2.69 1.202.342 2.31-.357 2.647-1.505M53.442 109.726a.767.767 0 0 1 .869-.66l.16.017c.37.05.568.255.742.548l2.468 4.229.467-3.563a.76.76 0 0 1 .856-.653c.42.053.718.43.663.846l-.72 5.499a.767.767 0 0 1-.868.664l-.05-.007c-.371-.047-.567-.253-.744-.546l-2.558-4.38-.484 3.7a.765.765 0 0 1-.859.654.758.758 0 0 1-.661-.848l.72-5.5zM60.48 116.035a.71.71 0 0 1 .429-1.284.74.74 0 0 1 .442.135c.537.387 1.124.624 1.809.62.636-.003 1.018-.255 1.016-.662v-.018c-.002-.39-.245-.588-1.426-.88-1.422-.352-2.344-.739-2.349-2.121v-.022c-.005-1.261 1.02-2.104 2.462-2.109.857-.005 1.605.211 2.241.607a.708.708 0 0 1-.376 1.316.736.736 0 0 1-.395-.108c-.514-.296-1-.463-1.483-.463-.597.005-.907.273-.905.612v.021c.001.457.303.604 1.526.91 1.434.36 2.243.866 2.248 2.08v.021c.005 1.383-1.06 2.163-2.583 2.17a4.593 4.593 0 0 1-2.657-.825M66.628 113.728l-.446-3.247a.766.766 0 0 1 .666-.862.769.769 0 0 1 .874.658l.439 3.205c.154 1.124.802 1.63 1.742 1.507.938-.127 1.432-.765 1.28-1.859l-.444-3.256a.762.762 0 0 1 .666-.862.767.767 0 0 1 .872.658l.437 3.195c.287 2.09-.76 3.276-2.64 3.525-1.878.25-3.17-.632-3.446-2.662M73.06 109.56a.76.76 0 0 1 .525-.952l.165-.05a.805.805 0 0 1 .791.187l2.662 2.368.942-3.428a.76.76 0 0 1 .557-.566l.164-.048a.77.77 0 0 1 .965.517l1.584 5.309a.759.759 0 0 1-.523.952.778.778 0 0 1-.957-.522l-.994-3.33-.712 2.364c-.09.275-.237.473-.507.552-.272.08-.507-.007-.73-.192l-1.872-1.58.993 3.32a.75.75 0 0 1-.523.931.75.75 0 0 1-.938-.506l-1.591-5.326zM81.608 109.873l-.008-.018c-.857-1.788-.131-3.924 1.836-4.843 1.97-.92 4.078-.133 4.934 1.657l.008.02c.86 1.787.13 3.922-1.835 4.842-1.968.92-4.075.132-4.935-1.658m5.313-2.482l-.01-.018c-.516-1.08-1.749-1.605-2.88-1.077-1.13.529-1.491 1.776-.973 2.857l.009.017c.517 1.078 1.75 1.605 2.88 1.076 1.13-.53 1.491-1.775.974-2.855M89.71 102.578a.755.755 0 0 1 .164-1.071l3.181-2.318a.708.708 0 0 1 .988.148.684.684 0 0 1-.149.973l-2.558 1.863.894 1.192 2.191-1.593a.707.707 0 0 1 .988.147.688.688 0 0 1-.149.974l-2.193 1.597 1.197 1.6a.756.756 0 0 1-.163 1.073.78.78 0 0 1-1.087-.162l-3.304-4.423zM96.137 101.326l-.013-.014c-1.408-1.413-1.433-3.665.122-5.172 1.554-1.509 3.806-1.448 5.215-.033l.012.013c1.407 1.414 1.43 3.666-.121 5.173-1.555 1.505-3.808 1.446-5.215.033m4.192-4.067l-.013-.016c-.849-.851-2.188-.946-3.08-.082-.892.864-.819 2.16.031 3.014l.012.013c.85.851 2.19.948 3.082.084.892-.868.817-2.162-.032-3.013M99.884 93.697a.753.753 0 0 1-.152-1.072l1.477-1.931c.542-.71 1.16-1.108 1.81-1.195.552-.077 1.12.085 1.653.481l.015.012c.887.661 1.099 1.505.863 2.389l1.696-.069c.245-.006.434.01.627.156.348.257.354.713.129 1.004-.21.279-.489.359-.782.365l-2.442.053-.748.977 1.232.916a.757.757 0 0 1 .152 1.075.774.774 0 0 1-1.085.147l-4.445-3.308zm4-.886c.456-.595.393-1.176-.08-1.533l-.017-.01c-.53-.397-1.085-.234-1.539.362l-.928 1.214 1.616 1.206.948-1.239zM103.763 88.537a.755.755 0 0 1-.311-1.04l.08-.15a.8.8 0 0 1 .692-.42l3.58-.185-1.793-3.08c-.15-.265-.16-.519-.01-.79l.08-.15a.778.778 0 0 1 1.054-.305l4.925 2.642c.38.205.519.663.31 1.041a.778.778 0 0 1-1.046.296l-3.093-1.657 1.191 2.168c.136.254.175.502.039.744-.136.244-.363.349-.655.375l-2.455.188 3.081 1.655c.373.201.501.656.3 1.022a.755.755 0 0 1-1.027.298l-4.942-2.652zM112.34 83.735l-4.388-4.144c-.305-.288-.416-.656-.274-1.05l.032-.084c.144-.392.464-.597.882-.626l6.062-.424a.78.78 0 0 1 .321.03c.39.137.592.55.453.934-.123.337-.406.489-.756.512l-1.205.069-1.053 2.884.924.848c.238.221.32.527.21.826a.717.717 0 0 1-.925.423.832.832 0 0 1-.283-.198zm-.357-4.708l-2.523.127 1.86 1.69.663-1.817zM109.71 75.08a.76.76 0 0 1-.59-.915.771.771 0 0 1 .927-.58l4.81 1.053.624-2.766a.705.705 0 0 1 .844-.528.69.69 0 0 1 .535.831l-.792 3.515a.771.771 0 0 1-.927.583l-5.432-1.193z"/>
        <g transform="translate(0 .072)">
            <mask id="b" fill="#fff">
                <use xlink:href="#a"/>
            </mask>
            <path fill="#FFF" d="M62.74 124.364C28.146 124.364 0 96.58 0 62.429 0 28.279 28.145.496 62.74.496s62.74 27.784 62.74 61.933c0 34.15-28.145 61.935-62.74 61.935m0-122.091c-33.603 0-60.942 26.987-60.942 60.156 0 33.172 27.339 60.16 60.943 60.16 33.602 0 60.94-26.988 60.94-60.16 0-33.17-27.338-60.156-60.94-60.156" mask="url(#b)"/>
        </g>
        <path fill="#FFF" d="M62.74 62.809c-1.617 0-2.928 1.294-2.928 2.891a2.89 2.89 0 0 0 1.505 2.527l-.486 4.472H64.65l-.486-4.472a2.89 2.89 0 0 0 1.505-2.527c0-1.597-1.311-2.891-2.927-2.891"/>
        <path fill="#FFF" d="M62.74 20.735c-23.369 0-42.311 18.7-42.311 41.768S39.37 104.27 62.74 104.27c23.368 0 42.31-18.7 42.31-41.768S86.11 20.735 62.741 20.735zm19.997 62.954c0 3.245-2.664 5.876-5.952 5.876H73.99l-.557 2.227c-.1.394-.356.658-.644.658h-1.981c-.289 0-.547-.264-.644-.658l-.56-2.227H55.873l-.557 2.227c-.098.394-.355.658-.643.658h-1.981c-.288 0-.545-.264-.645-.658l-.557-2.227h-2.795c-3.288 0-5.95-2.631-5.95-5.876l-1.01-30.15c0-3.245 2.665-5.876 5.953-5.876h3.802v-7.848c0-4.01 3.29-7.26 7.354-7.26h7.792c4.063 0 7.355 3.25 7.355 7.26v2.489c0 1.196-.981 2.166-2.193 2.166-1.211 0-2.193-.97-2.193-2.166v-2.49c0-1.616-1.328-2.93-2.969-2.93h-7.792c-1.64 0-2.97 1.314-2.97 2.93v7.849h13.731v41.902h4.386V47.663h3.801c3.288 0 5.955 2.63 5.955 5.876l-1.01 30.15z"/>
        <path fill="#FFF" d="M51.49 89.564h4.387V47.66H51.49z"/>
        <text fill="#FFF" font-family="BreePeru-Bold, Bree Peru" font-size="15" font-weight="bold">
            <tspan x="0" y="160">TURISMO SEGURO</tspan>
        </text>
    </g>
</svg>
