<?xml version="1.0" encoding="utf-8"?>
<!-- Generator: Adobe Illustrator 24.0.0, SVG Export Plug-In . SVG Version: 6.00 Build 0)  -->
<svg version="1.0" id="Capa_1" xmlns="http://www.w3.org/2000/svg" xmlns:xlink="http://www.w3.org/1999/xlink" x="0px" y="0px"
	 viewBox="0 0 48 48" style="enable-background:new 0 0 48 48;" xml:space="preserve">
<style type="text/css">
	.st0{fill:#FFFFFF;}
</style>
<g id="Capa_1_1_">
</g>
<g id="Capa_3">
</g>
<g id="Capa_2_1_">
	<g>
		<g>
			<path class="st0" d="M44.6,44.6c-0.6,0-1-0.2-1.6-0.4l-7.1-4.9H4.2c-2,0-3.6-1.6-3.6-3.6V6c0-1.8,1.6-3.4,3.6-3.4h39.5
				c2,0,3.6,1.6,3.6,3.6V42c0,1-0.6,2-1.4,2.4C45.4,44.6,45,44.6,44.6,44.6z M4.2,4.6c-0.8,0-1.6,0.6-1.6,1.6v29.7
				c0,0.8,0.6,1.6,1.6,1.6h32.2l7.7,5.3c0.4,0.2,0.6,0.2,0.8,0c0.2,0,0.4-0.2,0.4-0.6v-36c0-1-0.8-1.6-1.6-1.6H4.2z"/>
		</g>
		<path class="st0" d="M33.5,18.5H15.7c-1.2,0-2-0.8-2-2l0,0c0-1.2,0.8-2,2-2h17.8c1.2,0,2,0.8,2,2l0,0
			C35.5,17.7,34.5,18.5,33.5,18.5z"/>
		<path class="st0" d="M33.5,28.3H15.7c-1.2,0-2-0.8-2-2l0,0c0-1.2,0.8-2,2-2h17.8c1.2,0,2,0.8,2,2l0,0
			C35.5,27.6,34.5,28.3,33.5,28.3z"/>
	</g>
</g>
</svg>
